<mxfile host="app.diagrams.net" modified="2024-07-04T14:26:13.648Z" agent="Mozilla/5.0 (Windows NT 10.0; Win64; x64) AppleWebKit/537.36 (KHTML, like Gecko) Chrome/126.0.0.0 Safari/537.36 Edg/126.0.0.0" version="24.6.4" etag="1hYpT22Ko7_vEp56SClt" type="github">
  <diagram name="第 1 页" id="AxjWF6Ku7yrT4dL_wFJU">
    <mxGraphModel>
      <root>
        <mxCell id="0" />
        <mxCell id="1" parent="0" />
      </root>
    </mxGraphModel>
  </diagram>
</mxfile>
